<svg width="68" height="68" viewBox="0 0 68 68" fill="none" xmlns="http://www.w3.org/2000/svg">
<path d="M68 34C68 52.7777 52.7777 68 34 68C15.2223 68 0 52.7777 0 34C0 15.2223 15.2223 0 34 0C52.7777 0 68 15.2223 68 34Z" fill="#0052B5"/>
<path d="M25.5 18.7V1.07115C26.8845 0.714802 28.3031 0.44347 29.75 0.263048C31.1423 0.0894342 32.5607 0 34 0C35.4393 0 36.8577 0.0894342 38.25 0.263048C39.6969 0.44347 41.1155 0.714802 42.5 1.07115V23.375L56.95 8.91391C58.5077 10.3397 60.7796 13.1837 62.05 14.875L51 25.5H66.9288C67.2852 26.8845 67.5565 28.3031 67.737 29.75C67.9106 31.1423 68 32.5607 68 34C68 35.4393 67.9106 36.8577 67.737 38.25C67.5565 39.6969 67.2852 41.1155 66.9288 42.5H48.45L61.2025 54.4C59.3748 56.8332 57.2283 59.0132 54.825 60.878L42.5 48.45V66.9288C41.1155 67.2852 39.6969 67.5565 38.25 67.737C36.8577 67.9106 35.4393 68 34 68C32.5607 68 31.1423 67.9106 29.75 67.737C28.3031 67.5565 26.8845 67.2852 25.5 66.9288L25.5 45.05L11.475 59.4686C9.57295 57.7852 7.86087 55.8919 6.375 53.8251L18.7 42.5H1.07115C0.714803 41.1155 0.443472 39.6969 0.26305 38.25C0.0894348 36.8577 0 35.4393 0 34C0 32.5607 0.0894341 31.1423 0.263048 29.75C0.44347 28.3031 0.714802 26.8845 1.07115 25.5H19.125L6.8 13.5967C8.68642 11.0859 10.9124 8.84475 13.4097 6.94148L25.5 18.7Z" fill="white"/>
<path d="M25.5 25.5L9.98319 9.93358C9.16269 10.7524 8.38381 11.6129 7.65 12.5117L21.25 25.5H25.5Z" fill="#D90026"/>
<path d="M42.5 25.5L58.0168 9.93357C58.8373 10.7524 59.6162 11.6129 60.35 12.5116L46.75 25.5H42.5Z" fill="#D90026"/>
<path d="M42.5 42.7918L58.0168 58.3582C58.8373 57.5394 59.6162 56.6789 60.35 55.7801L46.75 42.7918H42.5Z" fill="#D90026"/>
<path d="M25.5 42.7918L9.98319 58.3582C9.16269 57.5394 8.38381 56.6789 7.65 55.7801L21.25 42.7918H25.5Z" fill="#D90026"/>
<path d="M0.263048 29.75C0.0894341 31.1423 0 32.5607 0 34C0 35.4393 0.0894348 36.8577 0.26305 38.25H29.75V67.737C31.1423 67.9106 32.5607 68 34 68C35.4393 68 36.8577 67.9106 38.25 67.737V38.25H67.737C67.9106 36.8577 68 35.4393 68 34C68 32.5607 67.9106 31.1423 67.737 29.75H38.25V0.263048C36.5864 0.0128065 35.7334 0 34 0C32.5607 0 31.1423 0.0894342 29.75 0.263048V29.75H0.263048Z" fill="#D90026"/>
<rect x="9" y="22.5" width="50" height="23" rx="11.5" fill="#182654"/>
<path d="M28.9531 37.8672V39.5H21.5078V37.8672H24.2344V30.3594L21.5938 32.0078V30.2812L24.3516 28.4922H26.4297V37.8672H28.9531ZM37.6484 33.9922C37.6484 35.8516 37.3281 37.2604 36.6875 38.2188C36.0521 39.1771 35.0964 39.6562 33.8203 39.6562C32.5599 39.6562 31.6146 39.1849 30.9844 38.2422C30.3542 37.2943 30.0391 35.8776 30.0391 33.9922C30.0391 32.0599 30.3385 30.6328 30.9375 29.7109C31.5417 28.7891 32.5234 28.3281 33.8828 28.3281C35.1849 28.3281 36.138 28.7995 36.7422 29.7422C37.3464 30.6849 37.6484 32.1016 37.6484 33.9922ZM35.4453 33.9922C35.4453 33.0026 35.401 32.2214 35.3125 31.6484C35.224 31.0703 35.0651 30.6589 34.8359 30.4141C34.6068 30.1693 34.2839 30.0469 33.8672 30.0469C33.4245 30.0469 33.0833 30.1719 32.8438 30.4219C32.6094 30.6667 32.4479 31.0781 32.3594 31.6562C32.276 32.2292 32.2344 33.0078 32.2344 33.9922C32.2344 34.9766 32.2786 35.7578 32.3672 36.3359C32.4609 36.9089 32.6224 37.3177 32.8516 37.5625C33.0859 37.8073 33.4141 37.9297 33.8359 37.9297C34.4609 37.9297 34.8854 37.6276 35.1094 37.0234C35.3333 36.4193 35.4453 35.4089 35.4453 33.9922ZM46.5547 33.9922C46.5547 35.8516 46.2344 37.2604 45.5938 38.2188C44.9583 39.1771 44.0026 39.6562 42.7266 39.6562C41.4661 39.6562 40.5208 39.1849 39.8906 38.2422C39.2604 37.2943 38.9453 35.8776 38.9453 33.9922C38.9453 32.0599 39.2448 30.6328 39.8438 29.7109C40.4479 28.7891 41.4297 28.3281 42.7891 28.3281C44.0911 28.3281 45.0443 28.7995 45.6484 29.7422C46.2526 30.6849 46.5547 32.1016 46.5547 33.9922ZM44.3516 33.9922C44.3516 33.0026 44.3073 32.2214 44.2188 31.6484C44.1302 31.0703 43.9714 30.6589 43.7422 30.4141C43.513 30.1693 43.1901 30.0469 42.7734 30.0469C42.3307 30.0469 41.9896 30.1719 41.75 30.4219C41.5156 30.6667 41.3542 31.0781 41.2656 31.6562C41.1823 32.2292 41.1406 33.0078 41.1406 33.9922C41.1406 34.9766 41.1849 35.7578 41.2734 36.3359C41.3672 36.9089 41.5286 37.3177 41.7578 37.5625C41.9922 37.8073 42.3203 37.9297 42.7422 37.9297C43.3672 37.9297 43.7917 37.6276 44.0156 37.0234C44.2396 36.4193 44.3516 35.4089 44.3516 33.9922Z" fill="white"/>
</svg>
