<svg width="25" height="24" viewBox="0 0 25 24" fill="none" xmlns="http://www.w3.org/2000/svg">
<path d="M24.5 17.6089C23.8437 18.8577 23.5298 19.416 22.6868 20.5195C21.5092 22.0607 19.8464 23.9838 17.7906 23.997C15.9621 24.0102 15.4901 22.9718 13.0086 22.9887C10.527 22.9991 10.01 24.0158 8.17931 23.9998C6.12359 23.9838 4.54969 22.2512 3.37091 20.7129C0.074944 16.3979 -0.272982 11.3406 1.76409 8.64978C3.20518 6.74175 5.4859 5.62127 7.62724 5.62127C9.80809 5.62127 11.1789 6.65121 12.9822 6.65121C14.7317 6.65121 15.7975 5.61844 18.3197 5.61844C20.2272 5.61844 22.2445 6.51162 23.6856 8.05275C18.9705 10.273 19.7366 16.0602 24.5 17.6089ZM16.4055 3.89622C17.3231 2.8842 18.0189 1.45625 17.7665 0C16.2694 0.0877145 14.5188 0.909212 13.4959 1.9731C12.5695 2.94174 11.8013 4.38101 12.1009 5.77312C13.7341 5.81839 15.4243 4.9818 16.4055 3.89622Z" fill="#851000"/>
</svg>
