<svg width="22" height="17" viewBox="0 0 22 17" fill="none" xmlns="http://www.w3.org/2000/svg">
<path d="M21.8113 8.01418L15.2117 0.741454C15.0709 0.587273 14.8744 0.5 14.6661 0.5H10.2663C10.1247 0.500152 9.9861 0.54086 9.8672 0.617235C9.74831 0.693609 9.65418 0.802402 9.59611 0.930545C9.47879 1.19382 9.52718 1.50073 9.72077 1.71309L15.879 8.5L9.72077 15.2855C9.52718 15.4993 9.47732 15.8062 9.59611 16.068C9.71491 16.3313 9.97743 16.5 10.2663 16.5H14.6661C14.8744 16.5 15.0709 16.4113 15.2117 16.26L21.8113 8.98727C22.0621 8.71091 22.0621 8.28909 21.8113 8.01418Z" fill="white"/>
<path d="M12.2791 8.01418L5.67945 0.741454C5.53866 0.587273 5.34213 0.5 5.13388 0.5H0.734118C0.592466 0.500152 0.45387 0.54086 0.334978 0.617235C0.216086 0.693609 0.121954 0.802402 0.0638879 0.930545C-0.0534391 1.19382 -0.00504173 1.50073 0.188548 1.71309L6.34675 8.5L0.188548 15.2855C-0.00504173 15.4993 -0.0549057 15.8062 0.0638879 16.068C0.182681 16.3313 0.4452 16.5 0.734118 16.5H5.13388C5.34213 16.5 5.53866 16.4113 5.67945 16.26L12.2791 8.98727C12.5299 8.71091 12.5299 8.28909 12.2791 8.01418Z" fill="white"/>
</svg>
