<svg width="22" height="21" viewBox="0 0 22 21" fill="none" xmlns="http://www.w3.org/2000/svg">
<path d="M19 12.25C19 12.0511 18.921 11.8603 18.7803 11.7197C18.6397 11.579 18.4489 11.5 18.25 11.5H15.25C15.0511 11.5 14.8603 11.579 14.7197 11.7197C14.579 11.8603 14.5 12.0511 14.5 12.25V19H13V2.75C13 2.022 12.998 1.55 12.952 1.204C12.908 0.879 12.837 0.777 12.78 0.72C12.723 0.663 12.621 0.592 12.296 0.548C11.949 0.502 11.478 0.5 10.75 0.5C10.022 0.5 9.55 0.502 9.204 0.548C8.879 0.592 8.777 0.663 8.72 0.72C8.663 0.777 8.592 0.879 8.548 1.204C8.502 1.551 8.5 2.022 8.5 2.75V19H7V7.25C7 7.05109 6.92098 6.86032 6.78033 6.71967C6.63968 6.57902 6.44891 6.5 6.25 6.5H3.25C3.05109 6.5 2.86032 6.57902 2.71967 6.71967C2.57902 6.86032 2.5 7.05109 2.5 7.25V19H0.75C0.551088 19 0.360322 19.079 0.21967 19.2197C0.0790177 19.3603 0 19.5511 0 19.75C0 19.9489 0.0790177 20.1397 0.21967 20.2803C0.360322 20.421 0.551088 20.5 0.75 20.5H20.75C20.9489 20.5 21.1397 20.421 21.2803 20.2803C21.421 20.1397 21.5 19.9489 21.5 19.75C21.5 19.5511 21.421 19.3603 21.2803 19.2197C21.1397 19.079 20.9489 19 20.75 19H19V12.25Z" fill="white"/>
</svg>
