<svg width="17" height="17" viewBox="0 0 17 17" fill="none" xmlns="http://www.w3.org/2000/svg">
<mask id="path-1-inside-1_650_16117" fill="white">
<path d="M11.3645 8.80956C11.3645 9.27622 11.1845 9.74289 10.8311 10.0962L6.48448 14.4429C6.29115 14.6362 5.97115 14.6362 5.77781 14.4429C5.58448 14.2496 5.58448 13.9296 5.77781 13.7362L10.1245 9.38956C10.4445 9.06956 10.4445 8.54956 10.1245 8.22956L5.77781 3.88289C5.58448 3.68956 5.58448 3.36956 5.77781 3.17622C5.97115 2.98289 6.29115 2.98289 6.48448 3.17622L10.8311 7.52289C11.1845 7.87622 11.3645 8.34289 11.3645 8.80956Z"/>
</mask>
<path d="M11.3645 8.80956C11.3645 9.27622 11.1845 9.74289 10.8311 10.0962L6.48448 14.4429C6.29115 14.6362 5.97115 14.6362 5.77781 14.4429C5.58448 14.2496 5.58448 13.9296 5.77781 13.7362L10.1245 9.38956C10.4445 9.06956 10.4445 8.54956 10.1245 8.22956L5.77781 3.88289C5.58448 3.68956 5.58448 3.36956 5.77781 3.17622C5.97115 2.98289 6.29115 2.98289 6.48448 3.17622L10.8311 7.52289C11.1845 7.87622 11.3645 8.34289 11.3645 8.80956Z" fill="#272828"/>
<path d="M10.8311 10.0962L11.5383 10.8033L10.8311 10.0962ZM6.48448 14.4429L5.77737 13.7358H5.77737L6.48448 14.4429ZM5.77781 13.7362L6.48492 14.4433L5.77781 13.7362ZM10.1245 9.38956L9.41737 8.68245L10.1245 9.38956ZM10.1245 8.22956L10.8316 7.52245L10.1245 8.22956ZM5.77781 3.88289L5.07071 4.59H5.07071L5.77781 3.88289ZM6.48448 3.17622L5.77737 3.88333H5.77737L6.48448 3.17622ZM10.8311 7.52289L11.5383 6.81578L10.8311 7.52289ZM10.3645 8.80956C10.3645 9.02018 10.2834 9.22971 10.124 9.38912L11.5383 10.8033C12.0855 10.2561 12.3645 9.53227 12.3645 8.80956H10.3645ZM10.124 9.38912L5.77737 13.7358L7.19159 15.15L11.5383 10.8033L10.124 9.38912ZM5.77737 13.7358C5.97456 13.5386 6.28773 13.5386 6.48492 13.7358L5.07071 15.15C5.65456 15.7339 6.60773 15.7339 7.19159 15.15L5.77737 13.7358ZM6.48492 13.7358C6.68211 13.933 6.68211 14.2461 6.48492 14.4433L5.07071 13.0291C4.48685 13.613 4.48685 14.5661 5.07071 15.15L6.48492 13.7358ZM6.48492 14.4433L10.8316 10.0967L9.41737 8.68245L5.07071 13.0291L6.48492 14.4433ZM10.8316 10.0967C11.5421 9.38614 11.5421 8.23297 10.8316 7.52245L9.41737 8.93666C9.34685 8.86614 9.34685 8.75297 9.41737 8.68245L10.8316 10.0967ZM10.8316 7.52245L6.48492 3.17578L5.07071 4.59L9.41737 8.93666L10.8316 7.52245ZM6.48492 3.17578C6.68211 3.37298 6.68211 3.68614 6.48492 3.88333L5.07071 2.46912C4.48685 3.05297 4.48685 4.00614 5.07071 4.59L6.48492 3.17578ZM6.48492 3.88333C6.28773 4.08052 5.97456 4.08052 5.77737 3.88333L7.19159 2.46912C6.60773 1.88526 5.65456 1.88526 5.07071 2.46912L6.48492 3.88333ZM5.77737 3.88333L10.124 8.23L11.5383 6.81578L7.19159 2.46912L5.77737 3.88333ZM10.124 8.23C10.2834 8.38941 10.3645 8.59893 10.3645 8.80956H12.3645C12.3645 8.08685 12.0855 7.36304 11.5383 6.81578L10.124 8.23Z" fill="#182654" mask="url(#path-1-inside-1_650_16117)"/>
</svg>
