<svg width="16" height="8" viewBox="0 0 16 8" fill="none" xmlns="http://www.w3.org/2000/svg">
<path d="M14.8776 6.91791C14.9467 6.86015 15.0026 6.79028 15.0411 6.71188C15.0798 6.63336 15.1 6.54828 15.1 6.46182C15.1 6.37536 15.0798 6.29028 15.0411 6.21176C15.0026 6.13335 14.9466 6.06346 14.8775 6.00569C14.8775 6.00566 14.8775 6.00564 14.8774 6.00561L9.41338 1.39618L9.41329 1.39611C9.03398 1.07689 8.52644 0.9 8.0003 0.9C7.47416 0.9 6.96661 1.07689 6.58731 1.39611L6.58722 1.39618L1.12327 6.00552C1.12319 6.00559 1.1231 6.00566 1.12302 6.00573C1.05378 6.06348 0.997723 6.1334 0.959047 6.21186C0.920289 6.29049 0.9 6.37572 0.9 6.46232C0.9 6.54892 0.920289 6.63414 0.959047 6.71278C0.997693 6.79118 1.0537 6.86105 1.12287 6.91878C1.26225 7.03618 1.44705 7.1 1.63702 7.1C1.82699 7.1 2.01179 7.03618 2.15117 6.91878L2.15123 6.91873L7.6168 2.30801L7.617 2.30784C7.71681 2.2232 7.85437 2.17373 8.0003 2.17373C8.14622 2.17373 8.28379 2.2232 8.3836 2.30784L8.38381 2.30801L13.8494 6.91774L13.8494 6.91778C13.9888 7.03518 14.1736 7.099 14.3636 7.099C14.5535 7.099 14.7382 7.03523 14.8776 6.91791ZM14.8776 6.91791C14.8775 6.91795 14.8775 6.91799 14.8774 6.91803L14.8133 6.8413M14.8776 6.91791C14.8776 6.91787 14.8777 6.91782 14.8777 6.91778L14.8133 6.8413M14.8133 6.8413C14.6933 6.94237 14.5318 6.999 14.3636 6.999C14.1953 6.999 14.0338 6.94237 13.9139 6.8413L14.8133 6.08234C14.8724 6.13172 14.9194 6.19073 14.9514 6.2559C14.9835 6.32107 15 6.39109 15 6.46182C15 6.53255 14.9835 6.60256 14.9514 6.66774C14.9194 6.73291 14.8724 6.79192 14.8133 6.8413Z" fill="#030A0B" stroke="#272828" stroke-width="0.2"/>
</svg>
