<svg width="17" height="17" viewBox="0 0 17 17" fill="none" xmlns="http://www.w3.org/2000/svg">
<mask id="path-1-inside-1_650_16226" fill="white">
<path d="M5.63552 8.80958C5.63552 8.34292 5.81552 7.87625 6.16885 7.52292L10.5155 3.17625C10.7089 2.98292 11.0289 2.98292 11.2222 3.17625C11.4155 3.36958 11.4155 3.68958 11.2222 3.88292L6.87552 8.22958C6.55552 8.54958 6.55552 9.06958 6.87552 9.38958L11.2222 13.7362C11.4155 13.9296 11.4155 14.2496 11.2222 14.4429C11.0289 14.6363 10.7089 14.6363 10.5155 14.4429L6.16885 10.0963C5.81552 9.74292 5.63552 9.27625 5.63552 8.80958Z"/>
</mask>
<path d="M5.63552 8.80958C5.63552 8.34292 5.81552 7.87625 6.16885 7.52292L10.5155 3.17625C10.7089 2.98292 11.0289 2.98292 11.2222 3.17625C11.4155 3.36958 11.4155 3.68958 11.2222 3.88292L6.87552 8.22958C6.55552 8.54958 6.55552 9.06958 6.87552 9.38958L11.2222 13.7362C11.4155 13.9296 11.4155 14.2496 11.2222 14.4429C11.0289 14.6363 10.7089 14.6363 10.5155 14.4429L6.16885 10.0963C5.81552 9.74292 5.63552 9.27625 5.63552 8.80958Z" fill="#272828"/>
<path d="M6.16885 7.52292L5.46175 6.81581L6.16885 7.52292ZM10.5155 3.17625L11.2226 3.88336H11.2226L10.5155 3.17625ZM11.2222 3.88292L10.5151 3.17581L11.2222 3.88292ZM6.87552 8.22958L7.58263 8.93669L6.87552 8.22958ZM6.87552 9.38958L6.16841 10.0967L6.87552 9.38958ZM11.2222 13.7362L11.9293 13.0291H11.9293L11.2222 13.7362ZM10.5155 14.4429L11.2226 13.7358H11.2226L10.5155 14.4429ZM6.16885 10.0963L5.46175 10.8034L6.16885 10.0963ZM6.63552 8.80958C6.63552 8.59896 6.71655 8.38943 6.87596 8.23002L5.46175 6.81581C4.91449 7.36307 4.63552 8.08687 4.63552 8.80958H6.63552ZM6.87596 8.23002L11.2226 3.88336L9.80841 2.46914L5.46175 6.81581L6.87596 8.23002ZM11.2226 3.88336C11.0254 4.08055 10.7123 4.08055 10.5151 3.88336L11.9293 2.46914C11.3454 1.88529 10.3923 1.88529 9.80841 2.46914L11.2226 3.88336ZM10.5151 3.88336C10.3179 3.68617 10.3179 3.373 10.5151 3.17581L11.9293 4.59002C12.5132 4.00617 12.5132 3.053 11.9293 2.46914L10.5151 3.88336ZM10.5151 3.17581L6.16841 7.52248L7.58263 8.93669L11.9293 4.59002L10.5151 3.17581ZM6.16841 7.52248C5.45789 8.233 5.45789 9.38617 6.16841 10.0967L7.58263 8.68248C7.65315 8.753 7.65315 8.86617 7.58263 8.93669L6.16841 7.52248ZM6.16841 10.0967L10.5151 14.4434L11.9293 13.0291L7.58263 8.68248L6.16841 10.0967ZM10.5151 14.4434C10.3179 14.2462 10.3179 13.933 10.5151 13.7358L11.9293 15.15C12.5132 14.5662 12.5132 13.613 11.9293 13.0291L10.5151 14.4434ZM10.5151 13.7358C10.7123 13.5386 11.0254 13.5386 11.2226 13.7358L9.80841 15.15C10.3923 15.7339 11.3454 15.7339 11.9293 15.15L10.5151 13.7358ZM11.2226 13.7358L6.87596 9.38914L5.46175 10.8034L9.80841 15.15L11.2226 13.7358ZM6.87596 9.38914C6.71655 9.22973 6.63552 9.02021 6.63552 8.80958H4.63552C4.63552 9.53229 4.91449 10.2561 5.46175 10.8034L6.87596 9.38914Z" fill="#E8E8E9" mask="url(#path-1-inside-1_650_16226)"/>
</svg>
