<svg width="89" height="59" viewBox="0 0 89 59" fill="none" xmlns="http://www.w3.org/2000/svg">
<path d="M0 0H88.2358V50.1145H50.5428L43.6896 58.2527L36.8363 50.1145H0V0Z" fill="#969696"/>
<mask id="path-2-inside-1_207_1203" fill="white">
<rect x="8.56543" y="11.5645" width="15.4198" height="15.4198" rx="1.22631"/>
</mask>
<rect x="8.56543" y="11.5645" width="15.4198" height="15.4198" rx="1.22631" stroke="white" stroke-width="3" mask="url(#path-2-inside-1_207_1203)"/>
<path d="M11.5645 23.5576L14.9911 19.7027L17.7752 22.9151L21.8444 13.7061" stroke="white" stroke-width="1.5" stroke-linecap="round"/>
<path d="M36.8036 26.4216C36.2542 26.4216 35.9795 26.1469 35.9795 25.5975V12.3895C35.9795 11.8401 36.2542 11.5654 36.8036 11.5654H42.6169C43.7677 11.5654 44.6474 11.8661 45.2562 12.4675C45.865 13.0689 46.1694 13.9338 46.1694 15.0623V15.6637C46.1694 16.7179 45.8353 17.5086 45.1671 18.0358C46.3847 18.6594 46.9935 19.851 46.9935 21.6106V22.3456C46.9935 23.682 46.6446 24.6954 45.9467 25.3859C45.2488 26.0764 44.2354 26.4216 42.9064 26.4216H36.8036ZM37.6166 24.7845H42.9064C43.7751 24.7845 44.3987 24.5952 44.7774 24.2166C45.1634 23.8305 45.3565 23.2068 45.3565 22.3456V21.6106C45.3565 20.7494 45.1709 20.1332 44.7996 19.7619C44.4284 19.3833 43.7974 19.194 42.9064 19.194H37.6166V24.7845ZM37.6166 17.5569H42.9398C43.5264 17.5569 43.9384 17.3898 44.176 17.0558C44.4136 16.7142 44.5324 16.2502 44.5324 15.6637V15.0623C44.5324 14.3867 44.3876 13.9078 44.098 13.6257C43.8085 13.3436 43.3148 13.2025 42.6169 13.2025H37.6166V17.5569Z" fill="white"/>
<path d="M59.6396 15.3853C60.189 15.3853 60.4637 15.6563 60.4637 16.1982V25.5975C60.4637 26.1469 60.189 26.4216 59.6396 26.4216C59.0976 26.4216 58.8267 26.1469 58.8267 25.5975V25.0073C58.0619 25.9501 56.8629 26.4216 55.2295 26.4216H54.6059C53.1581 26.4216 52.089 26.0764 51.3986 25.3859C50.7081 24.688 50.3629 23.6152 50.3629 22.1674V16.1982C50.3629 15.6563 50.6339 15.3853 51.1758 15.3853C51.7252 15.3853 51.9999 15.6563 51.9999 16.1982V22.1674C51.9999 23.1697 52.1856 23.8565 52.5568 24.2277C52.9354 24.5989 53.6185 24.7845 54.6059 24.7845H55.2295C56.2096 24.7845 57.03 24.6546 57.6907 24.3947C58.3515 24.1275 58.7301 23.7228 58.8267 23.1809V16.1982C58.8267 15.6563 59.0976 15.3853 59.6396 15.3853Z" fill="white"/>
<path d="M67.8034 30.8762C66.764 30.8762 65.9882 30.6164 65.4759 30.0967C64.971 29.5844 64.7186 28.8048 64.7186 27.758C64.7186 27.216 64.9896 26.945 65.5316 26.945C66.081 26.945 66.3557 27.216 66.3557 27.758C66.3557 28.3519 66.4485 28.7454 66.6341 28.9385C66.8271 29.1389 67.2169 29.2391 67.8034 29.2391H71.9685C72.555 29.2391 72.9448 29.1389 73.1378 28.9385C73.3309 28.7454 73.4274 28.3519 73.4274 27.758V24.8513C72.9893 25.4824 72.4659 25.9019 71.8571 26.1098C71.2483 26.3177 70.5727 26.4216 69.8303 26.4216H68.8948C67.4619 26.4216 66.4076 26.0838 65.732 25.4082C65.0564 24.7326 64.7186 23.6857 64.7186 22.2677V16.1982C64.7186 15.6488 64.9896 15.3741 65.5316 15.3741C66.081 15.3741 66.3557 15.6488 66.3557 16.1982V22.2677C66.3557 23.2328 66.5338 23.8936 66.8902 24.25C67.254 24.6063 67.9222 24.7845 68.8948 24.7845H69.8303C71.0776 24.7845 71.987 24.5766 72.5587 24.1609C73.1378 23.7451 73.4274 23.114 73.4274 22.2677V16.1982C73.4274 15.6488 73.6984 15.3741 74.2403 15.3741C74.7897 15.3741 75.0644 15.6488 75.0644 16.1982V27.758C75.0644 28.8048 74.8083 29.5844 74.296 30.0967C73.7837 30.6164 73.0079 30.8762 71.9685 30.8762H67.8034Z" fill="white"/>
</svg>
