<svg width="28" height="28" viewBox="0 0 28 28" fill="none" xmlns="http://www.w3.org/2000/svg">
<path d="M24.8446 18.8906L21.0346 18.4556C20.5866 18.403 20.1325 18.4526 19.7064 18.6007C19.2803 18.7488 18.8934 18.9915 18.5746 19.3106L15.8146 22.0706C11.5567 19.9045 8.09567 16.4435 5.92957 12.1856L8.70457 9.41063C9.34957 8.76563 9.66457 7.86563 9.55957 6.95063L9.12457 3.17063C9.03985 2.43876 8.68877 1.76366 8.13827 1.27402C7.58776 0.784374 6.87633 0.514425 6.13957 0.515629H3.54457C1.84957 0.515629 0.439573 1.92563 0.544573 3.62063C1.33957 16.4306 11.5846 26.6606 24.3796 27.4556C26.0746 27.5606 27.4846 26.1506 27.4846 24.4556V21.8606C27.4996 20.3456 26.3596 19.0706 24.8446 18.8906Z" fill="white"/>
</svg>
