<svg width="24" height="24" viewBox="0 0 24 24" fill="none" xmlns="http://www.w3.org/2000/svg">
<path d="M12.2695 14.4996C11.7212 14.5001 11.1852 14.3363 10.7294 14.0291C10.2736 13.7219 9.91855 13.285 9.70935 12.774C9.50016 12.2629 9.44622 11.7007 9.55439 11.1587C9.66256 10.6167 9.92795 10.1193 10.3169 9.72963C10.3903 9.65634 10.4772 9.59834 10.5728 9.55895C10.6684 9.51955 10.7707 9.49952 10.874 9.50001C10.9773 9.5005 11.0794 9.52149 11.1746 9.5618C11.2698 9.6021 11.3562 9.66092 11.4289 9.7349C11.5016 9.80888 11.5591 9.89656 11.5982 9.99296C11.6372 10.0894 11.6571 10.1926 11.6566 10.2967C11.6561 10.4008 11.6353 10.5038 11.5954 10.5999C11.5554 10.6959 11.4971 10.783 11.4237 10.8563C11.3111 10.9674 11.2216 11.1001 11.1606 11.2466C11.0997 11.393 11.0684 11.5504 11.0687 11.7092C11.0548 11.9593 11.1188 12.2075 11.2518 12.4191C11.3848 12.6306 11.5801 12.7949 11.8103 12.8889C12.0405 12.983 12.2942 13.002 12.5356 12.9434C12.7771 12.8848 12.9944 12.7515 13.157 12.5621C13.3056 12.4136 13.5064 12.3303 13.7156 12.3303C13.9249 12.3303 14.1256 12.4136 14.2742 12.5621C14.4191 12.7133 14.5 12.9153 14.5 13.1255C14.5 13.3357 14.4191 13.5377 14.2742 13.6888C14.0104 13.9517 13.6971 14.1588 13.3529 14.298C13.0086 14.4372 12.6403 14.5058 12.2695 14.4996Z" fill="#9BA4BF"/>
<path d="M23.2488 12C23.2488 14.9837 22.0636 17.8452 19.954 19.955C17.8443 22.0647 14.9829 23.25 11.9994 23.25C9.01588 23.25 6.15455 22.0647 4.04488 19.955C1.9352 17.8452 0.75 14.9837 0.75 12C0.75 9.01631 1.9352 6.15483 4.04488 4.04505C6.15455 1.93526 9.01588 0.75 11.9994 0.75C12.2177 0.75 12.4271 0.836727 12.5815 0.991101C12.7358 1.14548 12.8225 1.35485 12.8225 1.57317V5.7439C12.8197 5.96134 12.7321 6.16907 12.5783 6.32283C12.4246 6.47659 12.2168 6.56423 11.9994 6.56707C10.9246 6.55967 9.87256 6.87721 8.98128 7.47805C8.08498 8.0721 7.38599 8.91976 6.97354 9.91284C6.56108 10.9059 6.45385 11.9994 6.66555 13.0537C7.00982 14.3044 7.78603 15.3928 8.85644 16.1256C9.92686 16.8584 11.2223 17.1883 12.5128 17.0567C13.8033 16.9252 15.0055 16.3407 15.906 15.4069C16.8066 14.4732 17.3472 13.2506 17.4321 11.9561C17.4306 11.8476 17.4509 11.7399 17.4917 11.6393C17.5325 11.5388 17.5931 11.4475 17.6699 11.3707C17.7466 11.294 17.8379 11.2334 17.9384 11.1926C18.039 11.1517 18.1467 11.1315 18.2552 11.1329H22.4257C22.5376 11.1328 22.6483 11.1554 22.7512 11.1995C22.854 11.2436 22.9468 11.3082 23.0238 11.3893C23.1009 11.4705 23.1605 11.5665 23.1992 11.6715C23.2379 11.7765 23.2548 11.8883 23.2488 12Z" fill="#9BA4BF"/>
<path d="M23.25 5.3655C23.2197 5.59116 23.1273 5.80398 22.9831 5.98024L20.4646 8.49717C20.1065 8.85656 19.6634 9.11985 19.1764 9.26269C18.8907 9.35036 18.5932 9.3934 18.2944 9.39028C18.0898 9.40841 17.8839 9.40841 17.6793 9.39028L16.1357 9.08871L13.4897 11.7448C13.3233 11.903 13.1041 11.9939 12.8746 12C12.6438 11.9998 12.4225 11.908 12.2595 11.7448C12.1773 11.6649 12.1121 11.5693 12.0675 11.4637C12.023 11.3581 12 11.2447 12 11.1301C12 11.0155 12.023 10.9021 12.0675 10.7965C12.1121 10.6909 12.1773 10.5953 12.2595 10.5154L14.9172 7.84764L14.6038 6.3166C14.5102 5.82311 14.534 5.31453 14.6734 4.83196C14.8164 4.34525 15.0798 3.90244 15.4394 3.54449L17.9346 1.05076C18.1061 0.894883 18.3203 0.793889 18.5497 0.760788C18.7644 0.729702 18.9834 0.766187 19.1764 0.865177C19.3679 0.962525 19.5286 1.11109 19.6406 1.29433C19.754 1.49937 19.8025 1.73391 19.7799 1.96706L19.4085 4.58838L22.0198 4.22882C22.2384 4.20738 22.4583 4.25237 22.6509 4.35792C22.8435 4.46346 22.9997 4.62464 23.0991 4.82036C23.1937 4.98685 23.2455 5.17413 23.25 5.3655Z" fill="#9BA4BF"/>
</svg>
