<svg width="36" height="36" viewBox="0 0 36 36" fill="none" xmlns="http://www.w3.org/2000/svg">
<path d="M36 15V21C36 22.6548 34.6548 24 33 24H32.184C31.0356 30.7992 25.122 36 18 36C17.6817 36 17.3765 35.8736 17.1515 35.6485C16.9264 35.4235 16.8 35.1183 16.8 34.8C16.8 34.4817 16.9264 34.1765 17.1515 33.9515C17.3765 33.7264 17.6817 33.6 18 33.6C24.6168 33.6 30 28.2168 30 21.6V14.4C30 7.7832 24.6168 2.4 18 2.4C11.3832 2.4 6 7.7832 6 14.4V22.8C6 23.1183 5.87357 23.4235 5.64853 23.6485C5.42348 23.8736 5.11826 24 4.8 24H3C2.20455 23.9994 1.44185 23.6831 0.879382 23.1206C0.31691 22.5581 0.000635601 21.7955 0 21V15C0 13.3452 1.3452 12 3 12H3.816C4.9656 5.2008 10.8792 0 18 0C25.1208 0 31.0356 5.2008 32.184 12H33C34.6548 12 36 13.3452 36 15ZM18 4.8C12.7068 4.8 8.4 9.1068 8.4 14.4V20.4C8.4 25.6932 12.7068 30 18 30C23.2932 30 27.6 25.6932 27.6 20.4V14.4C27.6 9.1068 23.2932 4.8 18 4.8Z" fill="#FFFCFC"/>
</svg>
