<svg width="153" height="444" viewBox="0 0 153 444" fill="none" xmlns="http://www.w3.org/2000/svg">
<g opacity="0.6">
<mask id="mask0_207_1195" style="mask-type:alpha" maskUnits="userSpaceOnUse" x="0" y="0" width="153" height="444">
<rect width="152.203" height="444" fill="url(#paint0_radial_207_1195)"/>
</mask>
<g mask="url(#mask0_207_1195)">
<rect width="152.203" height="444" fill="url(#paint1_linear_207_1195)"/>
</g>
</g>
<line x1="2.5" y1="-2.5" x2="308.515" y2="-2.5" transform="matrix(0 -1 -1 0 72.9365 422.015)" stroke="#CBD2D1" stroke-width="5" stroke-linecap="round"/>
<path d="M18.8567 172.098L18.8486 172.095L75.159 150.681L131.469 172.095L131.461 172.098V337.322L131.469 337.325L75.159 358.739L18.8486 337.325L18.8567 337.322V172.098ZM129.577 172.814V336.605L75.159 315.91L20.7413 336.605V172.814L75.159 193.509L129.577 172.814ZM24.5185 172.095L75.159 152.837L125.799 172.095L75.159 191.353L24.5185 172.095ZM24.5185 337.325L75.159 318.067L125.799 337.325L75.159 356.582L24.5185 337.325Z" fill="white"/>
<path d="M18.8567 172.098L18.8486 172.095L75.159 150.681L131.469 172.095L131.461 172.098V337.322L131.469 337.325L75.159 358.739L18.8486 337.325L18.8567 337.322V172.098ZM129.577 172.814V336.605L75.159 315.91L20.7413 336.605V172.814L75.159 193.509L129.577 172.814ZM24.5185 172.095L75.159 152.837L125.799 172.095L75.159 191.353L24.5185 172.095ZM24.5185 337.325L75.159 318.067L125.799 337.325L75.159 356.582L24.5185 337.325Z" stroke="#CBD2D1"/>
<g opacity="0.8">
<path d="M18.8567 172.098L18.8486 172.095L75.159 150.681L131.469 172.095L131.461 172.098V337.322L131.469 337.325L75.159 358.739L18.8486 337.325L18.8567 337.322V172.098Z" fill="url(#paint2_linear_207_1195)"/>
<path d="M18.8567 172.098L18.8486 172.095L75.159 150.681L131.469 172.095L131.461 172.098V337.322L131.469 337.325L75.159 358.739L18.8486 337.325L18.8567 337.322V172.098Z" stroke="#CBD2D1"/>
</g>
<defs>
<radialGradient id="paint0_radial_207_1195" cx="0" cy="0" r="1" gradientUnits="userSpaceOnUse" gradientTransform="translate(76.3372 232.777) rotate(90) scale(211.223 577.971)">
<stop stop-color="#737373"/>
<stop offset="1" stop-color="#D9D9D9" stop-opacity="0"/>
</radialGradient>
<linearGradient id="paint1_linear_207_1195" x1="76.1014" y1="0" x2="76.1014" y2="444" gradientUnits="userSpaceOnUse">
<stop stop-color="#00A980"/>
<stop offset="1" stop-color="#84FEE0"/>
</linearGradient>
<linearGradient id="paint2_linear_207_1195" x1="75.159" y1="150.681" x2="75.159" y2="358.739" gradientUnits="userSpaceOnUse">
<stop stop-color="#00A980"/>
<stop offset="1" stop-color="#94FAE1"/>
</linearGradient>
</defs>
</svg>
