<svg width="20" height="27" viewBox="0 0 20 27" fill="none" xmlns="http://www.w3.org/2000/svg">
<path d="M10 14.25C8.95833 14.25 8.07292 13.8854 7.34375 13.1562C6.61458 12.4271 6.25 11.5417 6.25 10.5C6.25 9.45833 6.61458 8.57292 7.34375 7.84375C8.07292 7.11458 8.95833 6.75 10 6.75C11.0417 6.75 11.9271 7.11458 12.6562 7.84375C13.3854 8.57292 13.75 9.45833 13.75 10.5C13.75 11.5417 13.3854 12.4271 12.6562 13.1562C11.9271 13.8854 11.0417 14.25 10 14.25ZM2.5 26.75V17.0938C1.70833 16.2188 1.09375 15.2188 0.65625 14.0938C0.21875 12.9688 0 11.7708 0 10.5C0 7.70833 0.96875 5.34375 2.90625 3.40625C4.84375 1.46875 7.20833 0.5 10 0.5C12.7917 0.5 15.1562 1.46875 17.0938 3.40625C19.0312 5.34375 20 7.70833 20 10.5C20 11.7708 19.7812 12.9688 19.3438 14.0938C18.9062 15.2188 18.2917 16.2188 17.5 17.0938V26.75L10 24.25L2.5 26.75ZM10 18C12.0833 18 13.8542 17.2708 15.3125 15.8125C16.7708 14.3542 17.5 12.5833 17.5 10.5C17.5 8.41667 16.7708 6.64583 15.3125 5.1875C13.8542 3.72917 12.0833 3 10 3C7.91667 3 6.14583 3.72917 4.6875 5.1875C3.22917 6.64583 2.5 8.41667 2.5 10.5C2.5 12.5833 3.22917 14.3542 4.6875 15.8125C6.14583 17.2708 7.91667 18 10 18Z" fill="#182654"/>
</svg>
