<svg width="20" height="26" viewBox="0 0 20 26" fill="none" xmlns="http://www.w3.org/2000/svg">
<path d="M10 25.5C7.10417 24.7708 4.71333 23.1092 2.8275 20.515C0.941667 17.9208 -0.000832781 15.0408 5.5212e-07 11.875V4.25L10 0.5L20 4.25V11.875C20 15.0417 19.0575 17.9221 17.1725 20.5163C15.2875 23.1104 12.8967 24.7717 10 25.5ZM10 22.875C12.1667 22.1875 13.9583 20.8125 15.375 18.75C16.7917 16.6875 17.5 14.3958 17.5 11.875V5.96875L10 3.15625L2.5 5.96875V11.875C2.5 14.3958 3.20833 16.6875 4.625 18.75C6.04167 20.8125 7.83333 22.1875 10 22.875ZM7.5 18H12.5C12.8542 18 13.1513 17.88 13.3913 17.64C13.6313 17.4 13.7508 17.1033 13.75 16.75V13C13.75 12.6458 13.63 12.3492 13.39 12.11C13.15 11.8708 12.8533 11.7508 12.5 11.75V10.5C12.5 9.8125 12.2554 9.22417 11.7663 8.735C11.2771 8.24583 10.6883 8.00083 10 8C9.31167 7.99917 8.72333 8.24417 8.235 8.735C7.74667 9.22583 7.50167 9.81417 7.5 10.5V11.75C7.14583 11.75 6.84917 11.87 6.61 12.11C6.37083 12.35 6.25083 12.6467 6.25 13V16.75C6.25 17.1042 6.37 17.4013 6.61 17.6413C6.85 17.8813 7.14667 18.0008 7.5 18ZM8.75 11.75V10.5C8.75 10.1458 8.87 9.84917 9.11 9.61C9.35 9.37083 9.64667 9.25083 10 9.25C10.3533 9.24917 10.6504 9.36917 10.8913 9.61C11.1321 9.85083 11.2517 10.1475 11.25 10.5V11.75H8.75Z" fill="#182654"/>
</svg>
