<svg width="956" height="337" viewBox="0 0 956 337" fill="none" xmlns="http://www.w3.org/2000/svg">
<path d="M956 217.323H925.443L899.979 198.482L854.144 225.397H808.309L772.66 217.323L747.196 230.78L675.897 198.482L635.155 217.323L604.598 193.099L563.856 187.716L533.299 152.726L502.742 144.651L482.371 128.502L446.722 166.184L390.701 152.726L344.866 85.4376L309.217 96.2037L278.66 66.5968L258.289 74.6715L243.01 66.5968L217.546 90.8207L166.619 31.6069L120.784 39.6815L39.299 2L-32 31.6069" stroke="#DB470B" stroke-width="2"/>
<path d="M925.443 217.323H956V337H-32V31.6069L39.299 2L120.784 39.6815L166.619 31.6069L217.546 90.8207L243.01 66.5968L258.289 74.6714L278.66 66.5968L309.216 96.2037L344.866 85.4376L390.701 152.726L446.722 166.184L482.371 128.502L502.742 144.651L533.299 152.726L563.856 187.716L604.598 193.099L635.155 217.323L675.897 198.482L747.196 230.78L772.66 217.323L808.309 225.397H854.144L899.979 198.482L925.443 217.323Z" fill="url(#paint0_linear_270_2194)" fill-opacity="0.1"/>
<defs>
<linearGradient id="paint0_linear_270_2194" x1="462" y1="2" x2="462" y2="337" gradientUnits="userSpaceOnUse">
<stop stop-color="#DB470B"/>
<stop offset="1" stop-color="#DB470B" stop-opacity="0"/>
</linearGradient>
</defs>
</svg>
