<svg width="885" height="325" viewBox="0 0 885 325" fill="none" xmlns="http://www.w3.org/2000/svg">
<path d="M0 209.253H27.3402L50.1237 191.03L91.134 217.062H132.144L164.041 209.253L186.825 222.268L250.619 191.03L287.072 209.253L314.412 185.824L350.866 180.618L378.206 146.777L405.546 138.967L423.773 123.348L455.67 159.793L505.794 146.777L546.804 81.6979L578.701 92.1105L606.041 63.4758L624.268 71.2852L637.938 63.4758L660.722 86.9042L706.289 29.6347L747.299 37.4442L820.206 1L884 29.6347" stroke="#185858" stroke-width="1.62652"/>
<path d="M27.3402 209.253H0V325H884V29.6347L820.206 1L747.299 37.4442L706.289 29.6347L660.722 86.9042L637.938 63.4758L624.268 71.2852L606.041 63.4758L578.701 92.1105L546.804 81.6979L505.794 146.777L455.67 159.793L423.773 123.348L405.546 138.967L378.206 146.777L350.866 180.618L314.412 185.824L287.072 209.253L250.619 191.03L186.825 222.268L164.041 209.253L132.144 217.062H91.134L50.1237 191.03L27.3402 209.253Z" fill="url(#paint0_linear_224_8828)" fill-opacity="0.1"/>
<defs>
<linearGradient id="paint0_linear_224_8828" x1="442" y1="1" x2="442" y2="325" gradientUnits="userSpaceOnUse">
<stop offset="0.175" stop-color="#005E5E"/>
<stop offset="0.865" stop-color="#04E6E6" stop-opacity="0.1"/>
</linearGradient>
</defs>
</svg>
