<svg width="72" height="47" viewBox="0 0 72 47" fill="none" xmlns="http://www.w3.org/2000/svg">
<path d="M0 0H71.0205V40.3369H40.6816L35.1655 46.8873L29.6493 40.3369H0V0Z" fill="#9A9A9A"/>
<rect x="7.39551" y="9.88281" width="11.4113" height="11.4113" rx="0.726313" stroke="white"/>
<path d="M9.30859 19.0359L12.0667 15.9331L14.3076 18.5188L17.5828 11.1064" stroke="white" stroke-linecap="round"/>
<path d="M32.334 21.8578C31.3002 21.8578 30.5054 21.6427 29.9496 21.2125C29.3999 20.7762 29.0712 20.101 28.9636 19.1866C28.9457 18.9655 28.9935 18.7982 29.107 18.6847C29.2266 18.5652 29.3939 18.5054 29.609 18.5054C29.8241 18.5054 29.9825 18.5592 30.0841 18.6668C30.1917 18.7743 30.2604 18.9357 30.2903 19.1508C30.362 19.6767 30.5502 20.0412 30.855 20.2444C31.1657 20.4416 31.6587 20.5402 32.334 20.5402H34.9156C35.7163 20.5402 36.2631 20.3938 36.5559 20.101C36.8547 19.8022 37.0041 19.2613 37.0041 18.4785C37.0041 17.6837 36.8517 17.1369 36.547 16.8381C36.2482 16.5334 35.7044 16.381 34.9156 16.381H32.6208C31.5153 16.381 30.6966 16.1151 30.1648 15.5832C29.6389 15.0514 29.376 14.2357 29.376 13.1361C29.376 12.0366 29.6359 11.2238 30.1558 10.698C30.6817 10.1721 31.4974 9.90916 32.6029 9.90916H34.8618C35.8299 9.90916 36.5739 10.1153 37.0938 10.5277C37.6196 10.934 37.9363 11.5645 38.0439 12.419C38.0678 12.6401 38.02 12.8104 37.9005 12.9299C37.7869 13.0435 37.6196 13.1003 37.3985 13.1003C37.1894 13.1003 37.031 13.0465 36.9234 12.9389C36.8159 12.8254 36.7501 12.664 36.7262 12.4549C36.6545 11.9947 36.4753 11.675 36.1884 11.4957C35.9075 11.3165 35.4653 11.2268 34.8618 11.2268H32.6029C31.8619 11.2268 31.357 11.3643 31.088 11.6392C30.8251 11.9081 30.6936 12.4071 30.6936 13.1361C30.6936 13.8652 30.8281 14.3701 31.097 14.651C31.3719 14.9259 31.8798 15.0633 32.6208 15.0633H34.9156C36.0749 15.0633 36.9324 15.3412 37.4882 15.897C38.0439 16.4527 38.3218 17.3132 38.3218 18.4785C38.3218 19.6378 38.0439 20.4924 37.4882 21.0421C36.9324 21.5859 36.0749 21.8578 34.9156 21.8578H32.334Z" fill="white"/>
<path d="M42.51 17.9586V18.4606C42.51 19.2554 42.6594 19.8022 42.9581 20.101C43.2569 20.3997 43.8097 20.5491 44.6164 20.5491H46.0865C46.7438 20.5491 47.2249 20.4804 47.5297 20.343C47.8404 20.1996 48.0406 19.9516 48.1302 19.599C48.178 19.4018 48.2527 19.2494 48.3543 19.1418C48.4619 19.0343 48.6203 18.9805 48.8294 18.9805C49.0505 18.9805 49.2178 19.0402 49.3314 19.1598C49.4449 19.2733 49.4838 19.4406 49.4479 19.6617C49.3344 20.4087 48.9967 20.9645 48.435 21.329C47.8792 21.6875 47.0964 21.8668 46.0865 21.8668H44.6164C43.4512 21.8668 42.5876 21.5889 42.0259 21.0332C41.4702 20.4774 41.1923 19.6199 41.1923 18.4606V16.3989C41.1923 15.2157 41.4702 14.3492 42.0259 13.7994C42.5876 13.2437 43.4512 12.9718 44.6164 12.9837H46.0865C47.2518 12.9837 48.1123 13.2616 48.6681 13.8174C49.2238 14.3671 49.5017 15.2277 49.5017 16.3989V17.2953C49.5017 17.7375 49.2836 17.9586 48.8473 17.9586H42.51ZM44.6164 14.3014C43.8097 14.2895 43.2569 14.4329 42.9581 14.7317C42.6594 15.0305 42.51 15.5862 42.51 16.3989V16.6409H48.184V16.3989C48.184 15.5922 48.0346 15.0424 47.7358 14.7496C47.443 14.4508 46.8932 14.3014 46.0865 14.3014H44.6164Z" fill="white"/>
<path d="M55.3559 21.8668C54.4655 21.8668 53.8051 21.6517 53.3749 21.2214C52.9446 20.7852 52.7295 20.1219 52.7295 19.2315V9.96295C52.7295 9.52671 52.9506 9.30859 53.3928 9.30859C53.829 9.30859 54.0471 9.52671 54.0471 9.96295V19.2315C54.0471 19.7514 54.1338 20.101 54.3071 20.2802C54.4864 20.4595 54.836 20.5491 55.3559 20.5491C55.804 20.5491 56.0281 20.7673 56.0281 21.2035C56.0401 21.6457 55.816 21.8668 55.3559 21.8668Z" fill="white"/>
<path d="M61.2033 21.8668C60.3129 21.8668 59.6526 21.6517 59.2223 21.2214C58.7921 20.7852 58.5769 20.1219 58.5769 19.2315V9.96295C58.5769 9.52671 58.798 9.30859 59.2402 9.30859C59.6765 9.30859 59.8946 9.52671 59.8946 9.96295V19.2315C59.8946 19.7514 59.9812 20.101 60.1545 20.2802C60.3338 20.4595 60.6834 20.5491 61.2033 20.5491C61.6515 20.5491 61.8756 20.7673 61.8756 21.2035C61.8875 21.6457 61.6634 21.8668 61.2033 21.8668Z" fill="white"/>
</svg>
