<svg width="30" height="30" viewBox="0 0 30 30" fill="none" xmlns="http://www.w3.org/2000/svg">
<path d="M14.9992 24.8C15.3705 24.8 15.7267 24.9475 15.9892 25.21C16.2518 25.4726 16.3993 25.8287 16.3993 26.2V27.6C16.3993 27.9713 16.2518 28.3274 15.9892 28.59C15.7267 28.8525 15.3705 29 14.9992 29C14.6279 29 14.2718 28.8525 14.0092 28.59C13.7467 28.3274 13.5991 27.9713 13.5991 27.6V26.2C13.5991 25.8287 13.7467 25.4726 14.0092 25.21C14.2718 24.9475 14.6279 24.8 14.9992 24.8ZM23.9093 21.93L24.8992 22.9198C25.1542 23.1838 25.2953 23.5375 25.2921 23.9046C25.2889 24.2716 25.1417 24.6228 24.8821 24.8823C24.6225 25.1419 24.2714 25.2892 23.9043 25.2923C23.5372 25.2955 23.1835 25.1544 22.9195 24.8994L21.9296 23.9096C21.6746 23.6456 21.5335 23.2919 21.5366 22.9248C21.5398 22.5578 21.6871 22.2066 21.9467 21.9471C22.2062 21.6875 22.5574 21.5402 22.9245 21.5371C23.2916 21.5339 23.6453 21.675 23.9093 21.93ZM6.08913 21.93C6.34109 21.6789 6.67917 21.5331 7.03472 21.5223C7.39027 21.5114 7.73662 21.6363 8.00343 21.8715C8.27023 22.1068 8.43749 22.4348 8.47122 22.7889C8.50495 23.143 8.40264 23.4966 8.18505 23.778L8.06884 23.9096L7.07899 24.8994C6.82703 25.1505 6.48895 25.2963 6.1334 25.3071C5.77785 25.318 5.4315 25.1931 5.16469 24.9579C4.89788 24.7226 4.73063 24.3946 4.6969 24.0405C4.66316 23.6864 4.76548 23.3328 4.98307 23.0514L5.09928 22.9198L6.08913 21.93ZM14.9992 6.6C17.2272 6.6 19.3639 7.485 20.9393 9.0603C22.5146 10.6356 23.3997 12.7722 23.3997 15C23.3997 17.2278 22.5146 19.3644 20.9393 20.9397C19.3639 22.515 17.2272 23.4 14.9992 23.4C12.7713 23.4 10.6346 22.515 9.0592 20.9397C7.48381 19.3644 6.59876 17.2278 6.59876 15C6.59876 12.7722 7.48381 10.6356 9.0592 9.0603C10.6346 7.485 12.7713 6.6 14.9992 6.6ZM3.7986 13.6C4.15546 13.6004 4.49869 13.737 4.75817 13.982C5.01766 14.2269 5.17381 14.5617 5.19472 14.918C5.21564 15.2742 5.09973 15.6249 4.87069 15.8986C4.64165 16.1722 4.31677 16.3481 3.96241 16.3902L3.7986 16.4H2.39853C2.04168 16.3996 1.69844 16.263 1.43896 16.018C1.17947 15.7731 1.02332 15.4383 1.00241 15.082C0.981495 14.7258 1.0974 14.3751 1.32644 14.1014C1.55548 13.8278 1.88036 13.6519 2.23472 13.6098L2.39853 13.6H3.7986ZM27.5999 13.6C27.9712 13.6 28.3274 13.7475 28.5899 14.0101C28.8525 14.2726 29 14.6287 29 15C29 15.3713 28.8525 15.7274 28.5899 15.9899C28.3274 16.2525 27.9712 16.4 27.5999 16.4H26.1998C25.8285 16.4 25.4724 16.2525 25.2098 15.9899C24.9473 15.7274 24.7998 15.3713 24.7998 15C24.7998 14.6287 24.9473 14.2726 25.2098 14.0101C25.4724 13.7475 25.8285 13.6 26.1998 13.6H27.5999ZM5.09928 5.1006C5.34036 4.85955 5.66112 4.71475 6.00137 4.69336C6.34163 4.67196 6.678 4.77545 6.94738 4.9844L7.07899 5.1006L8.06884 6.0904C8.31994 6.34234 8.46573 6.68041 8.47658 7.03594C8.48744 7.39147 8.36256 7.7378 8.1273 8.00459C7.89204 8.27138 7.56404 8.43863 7.20993 8.47236C6.85582 8.50609 6.50214 8.40378 6.22074 8.1862L6.08913 8.07L5.09928 7.0802C4.8368 6.81766 4.68935 6.46163 4.68935 6.0904C4.68935 5.71917 4.8368 5.36314 5.09928 5.1006ZM24.8992 5.1006C25.1616 5.36314 25.3091 5.71917 25.3091 6.0904C25.3091 6.46163 25.1616 6.81766 24.8992 7.0802L23.9093 8.07C23.7802 8.20371 23.6257 8.31037 23.4549 8.38374C23.284 8.45711 23.1003 8.49574 22.9144 8.49735C22.7285 8.49897 22.5442 8.46354 22.3721 8.39315C22.2 8.32276 22.0437 8.2188 21.9123 8.08735C21.7808 7.9559 21.6768 7.79959 21.6064 7.62754C21.536 7.45548 21.5006 7.27113 21.5022 7.08524C21.5038 6.89935 21.5425 6.71564 21.6158 6.54483C21.6892 6.37403 21.7959 6.21955 21.9296 6.0904L22.9195 5.1006C23.182 4.83814 23.5381 4.6907 23.9093 4.6907C24.2806 4.6907 24.6366 4.83814 24.8992 5.1006ZM14.9992 1C15.3705 1 15.7267 1.1475 15.9892 1.41005C16.2518 1.6726 16.3993 2.0287 16.3993 2.4V3.8C16.3993 4.1713 16.2518 4.5274 15.9892 4.78995C15.7267 5.0525 15.3705 5.2 14.9992 5.2C14.6279 5.2 14.2718 5.0525 14.0092 4.78995C13.7467 4.5274 13.5991 4.1713 13.5991 3.8V2.4C13.5991 2.0287 13.7467 1.6726 14.0092 1.41005C14.2718 1.1475 14.6279 1 14.9992 1Z" fill="#9BA4BF"/>
</svg>
